<svg id="圖層_1" data-name="圖層 1" xmlns="http://www.w3.org/2000/svg" viewBox="0 0 302.83 248.51"><defs><style>.cls-1{fill:#f0f5de;}</style></defs><title>牛奶溢出</title><path class="cls-1" d="M106.07,20.47c-9.51,21.47-7.43,24.38,2.51,42,8.7,15.38-.2,22.65-5.53,36.05-5.16,13,2.64,23.54,1,36-1.72,13.16-13.76,20-15,34.32-.8,9.31,2.68,17.6,2,26.9C90,209.94,82.58,218.9,70.29,221.45-45.62,245.51-2,249,84.81,242.47c11.08-.83,19.25-6.34,30.48-6,8.68.27,11.73,4.32,18.78,8,7.43,3.87,16.36,4.19,25.07,4,5.51-.12,11.89-.79,16.93-3.26,7.38-3.61,59.28-13.73,66.82-17.83,17.93-9.76,37.75-1.51,56.56-5,14.73-2.73-22.15-15.89-43.37-17.7-22.46-1.91,2.61-.46-19.77.47-19.48.8-78.1,1.22-85.87-19.35-6-15.78-16.81-19.83-11.53-33.76,4.26-11.24-.07-21.77-3.54-32.91-5.68-18.25-9.07-30.15-4-48.79,3.64-13.52,2.55-27.21,2.78-41.27C134.4,11,128,2.57,114.33.35c-12.54-2-16.83,4.75-8.26,20.12"/></svg>